<svg xmlns="http://www.w3.org/2000/svg" viewBox="0 0 64 64" role="img" aria-label="Fuel Pump">
  <rect width="64" height="64" rx="10" fill="#212529"/>
  <g fill="#cde966">
    <rect x="14" y="10" width="26" height="44" rx="4"/>
    <rect x="19" y="16" width="16" height="12" rx="2" fill="#212529"/>
    <rect x="19" y="32" width="16" height="4" rx="1" fill="#212529"/>
    <rect x="44" y="16" width="6" height="24" rx="3"/>
    <path d="M47 16v-4a8 8 0 0 0-8-8h-5v4h5a4 4 0 0 1 4 4v4z"/>
    <path d="M44 40h6v6a5 5 0 0 1-5 5h-5v-4h4a1 1 0 0 0 1-1z"/>
  </g>
</svg>
